<?xml version="1.0" standalone="no"?>
<!DOCTYPE svg PUBLIC "-//W3C//DTD SVG 20010904//EN"
 "http://www.w3.org/TR/2001/REC-SVG-20010904/DTD/svg10.dtd">
<svg version="1.0" xmlns="http://www.w3.org/2000/svg"
 width="139.000000pt" height="139.000000pt" viewBox="0 0 139.000000 139.000000"
 preserveAspectRatio="xMidYMid meet">
<metadata>
Created by potrace 1.11, written by Peter Selinger 2001-2013
</metadata>
<g transform="translate(0.000000,139.000000) scale(0.100000,-0.100000)"
fill="#000000" stroke="none">
<path d="M440 835 l0 -325 -33 -37 c-28 -30 -40 -36 -76 -36 -77 0 -121 51
-121 139 l0 51 -99 0 c-67 1 -101 -3 -104 -10 -6 -17 -1 -108 8 -137 29 -96
95 -173 183 -213 36 -17 66 -22 127 -22 102 1 166 27 230 96 63 67 85 122 90
221 3 45 6 83 8 84 2 2 14 -22 27 -54 30 -74 57 -137 100 -236 l36 -81 91 -1
c51 0 97 2 102 6 6 3 47 91 91 196 l79 189 3 -195 3 -195 90 -1 c50 0 95 1
101 3 8 3 11 132 11 444 l0 439 -102 0 -103 0 -42 -102 c-24 -57 -65 -157 -93
-223 -27 -66 -57 -138 -67 -160 -9 -22 -28 -66 -41 -98 l-23 -59 -15 34 c-17
40 -25 58 -91 218 -29 69 -60 143 -70 165 -9 22 -34 82 -55 133 l-38 92 -103
0 -104 0 0 -325z"/>
</g>
</svg>
